<svg width="27" height="24" viewBox="0 0 27 24" fill="none" xmlns="http://www.w3.org/2000/svg">
<path d="M13.6626 11.7418C7.22205 11.7418 2.43457 9.69987 2.43457 6.97098C2.43457 4.24209 7.26499 2.2002 13.6626 2.2002C20.0602 2.2002 24.8907 4.25163 24.8907 6.97098C24.8907 9.69033 20.1032 11.7418 13.6626 11.7418ZM13.6626 3.64097C7.99492 3.64097 4.00177 5.39662 4.00177 6.98052C4.00177 8.56442 7.95198 10.3105 13.6626 10.3105C19.3732 10.3105 23.3235 8.55488 23.3235 6.98052C23.3235 5.40616 19.3303 3.64097 13.6626 3.64097Z" fill="black"/>
<path d="M13.6626 16.3788C10.5438 16.4726 7.45228 15.8342 4.6995 14.5277C4.06972 14.2572 3.52983 13.8458 3.13277 13.334C2.73572 12.8222 2.49512 12.2274 2.43457 11.608C2.49644 10.9864 2.73864 10.3898 3.13751 9.87639C3.53638 9.36296 4.07827 8.95029 4.71024 8.67871C4.89014 8.59129 5.10049 8.56729 5.2994 8.6115C5.49831 8.6557 5.6712 8.76486 5.78366 8.91725C5.88558 9.07552 5.91568 9.26242 5.8678 9.43975C5.81992 9.61709 5.69767 9.77148 5.52604 9.8714C4.58142 10.4344 4.00177 11.0355 4.00177 11.608C4.00177 12.1805 4.53849 12.7816 5.51531 13.3159C8.02237 14.4873 10.8327 15.0501 13.6626 14.9475C16.4781 15.0433 19.2727 14.4807 21.767 13.3159C22.7438 12.7816 23.3235 12.1805 23.3235 11.608C23.3235 11.0355 22.7867 10.4344 21.8099 9.90003C21.6383 9.80011 21.516 9.64571 21.4682 9.46838C21.4203 9.29104 21.4504 9.10415 21.5523 8.94587C21.6648 8.79348 21.8377 8.68432 22.0366 8.64012C22.2355 8.59592 22.4458 8.61991 22.6257 8.70733C23.2513 8.9777 23.7882 9.38649 24.1848 9.89444C24.5815 10.4024 24.8245 10.9925 24.8907 11.608C24.8288 12.2295 24.5866 12.8261 24.1877 13.3395C23.7889 13.853 23.247 14.2656 22.615 14.5372C19.8637 15.8371 16.7766 16.4721 13.6626 16.3788Z" fill="black"/>
<path d="M13.6626 21.0067C7.22205 21.0067 2.43457 18.9553 2.43457 16.236C2.49822 15.6161 2.74125 15.0214 3.14002 14.5098C3.53879 13.9982 4.07973 13.587 4.71024 13.3162C4.8883 13.2256 5.09855 13.1989 5.29806 13.2414C5.49756 13.284 5.67125 13.3927 5.78366 13.5452C5.88303 13.704 5.91169 13.8902 5.86398 14.0669C5.81627 14.2436 5.69567 14.398 5.52604 14.4994C4.58142 15.0623 4.00177 15.673 4.00177 16.236C4.00177 17.8199 7.95198 19.5755 13.6626 19.5755C19.3732 19.5755 23.3235 17.8199 23.3235 16.236C23.3235 15.673 22.7867 15.0623 21.8099 14.5376C21.6403 14.4361 21.5197 14.2818 21.472 14.1051C21.4243 13.9284 21.4529 13.7422 21.5523 13.5834C21.6647 13.4308 21.8384 13.3222 22.0379 13.2796C22.2374 13.237 22.4477 13.2638 22.6257 13.3544C23.2562 13.6252 23.7972 14.0364 24.1959 14.548C24.5947 15.0596 24.8377 15.6543 24.9014 16.2741C24.8907 18.9553 20.1032 21.0067 13.6626 21.0067Z" fill="black"/>
</svg>
