<svg width="23" height="23" viewBox="0 0 23 23" fill="none" xmlns="http://www.w3.org/2000/svg">
<path fill-rule="evenodd" clip-rule="evenodd" d="M4.97376 3.29717C5.96347 2.84594 7.07934 2.75313 8.12999 3.03465C8.64123 3.17163 8.94462 3.69712 8.80764 4.20836C8.67065 4.7196 8.14516 5.02299 7.63392 4.886C7.01308 4.71965 6.35371 4.7745 5.76888 5.04113C5.18405 5.30777 4.71022 5.76958 4.42865 6.34737C4.14708 6.92515 4.07532 7.5829 4.22567 8.20781C4.37603 8.83272 4.73912 9.38584 5.25269 9.77232C5.53131 9.98199 5.67406 10.3264 5.62542 10.6717C5.57678 11.017 5.34443 11.3086 5.01873 11.4332C4.36769 11.6821 3.76961 12.0666 3.26728 12.569C3.09805 12.7382 2.94222 12.9182 2.80046 13.1075C2.50508 13.5019 2.52433 13.8322 2.67979 14.1281C2.86335 14.4774 3.28514 14.8395 3.88175 15.0272C4.38663 15.186 4.66717 15.7241 4.50835 16.2289C4.34953 16.7338 3.81149 17.0144 3.30661 16.8555C2.32738 16.5475 1.44691 15.9022 0.983122 15.0196C0.491223 14.0836 0.518032 12.9576 1.26641 11.9585C1.46252 11.6966 1.67804 11.4476 1.912 11.2137C2.27272 10.8529 2.66917 10.5361 3.09303 10.2667C2.75187 9.78465 2.50238 9.23885 2.36218 8.65617C2.10774 7.59863 2.22919 6.48551 2.70569 5.50772C3.18219 4.52993 3.98406 3.7484 4.97376 3.29717ZM17.2321 5.04113C16.6473 4.7745 15.9879 4.71965 15.367 4.886C14.8558 5.02299 14.3303 4.7196 14.1933 4.20836C14.0563 3.69712 14.3597 3.17163 14.871 3.03465C15.9216 2.75313 17.0375 2.84594 18.0272 3.29717C19.0169 3.7484 19.8188 4.52993 20.2953 5.50772C20.7718 6.48551 20.8932 7.59863 20.6388 8.65617C20.4986 9.23885 20.2491 9.78465 19.9079 10.2667C20.3318 10.5361 20.7282 10.8529 21.089 11.2137C21.3229 11.4476 21.5384 11.6966 21.7346 11.9585C22.4829 12.9576 22.5097 14.0836 22.0178 15.0196C21.5541 15.9022 20.6736 16.5475 19.6944 16.8555C19.1895 17.0144 18.6514 16.7338 18.4926 16.2289C18.3338 15.7241 18.6143 15.186 19.1192 15.0272C19.7158 14.8395 20.1376 14.4774 20.3212 14.1281C20.4766 13.8322 20.4959 13.5019 20.2005 13.1075C20.0587 12.9183 19.9029 12.7382 19.7337 12.569C19.2313 12.0666 18.6333 11.6821 17.9822 11.4332C17.6565 11.3086 17.4242 11.017 17.3755 10.6717C17.3269 10.3264 17.4697 9.98199 17.7483 9.77232C18.2618 9.38584 18.6249 8.83272 18.7753 8.20781C18.9256 7.5829 18.8539 6.92515 18.5723 6.34737C18.2907 5.76958 17.8169 5.30777 17.2321 5.04113ZM11.5006 6.70833C9.97159 6.70833 8.73209 7.94784 8.73209 9.47685C8.73209 11.0059 9.97163 12.2454 11.5006 12.2454C13.0296 12.2454 14.2691 11.0059 14.2691 9.47685C14.2691 7.94784 13.0296 6.70833 11.5006 6.70833ZM14.6089 12.9826C15.5762 12.1243 16.1858 10.8718 16.1858 9.47685C16.1858 6.8893 14.0882 4.79167 11.5006 4.79167C8.91305 4.79167 6.81542 6.8893 6.81542 9.47685C6.81542 10.8718 7.42502 12.1243 8.39236 12.9826C7.73802 13.3115 7.13408 13.7451 6.60653 14.2726C6.37257 14.5066 6.15706 14.7556 5.96095 15.0174C5.52143 15.6042 5.31446 16.2582 5.35091 16.9182C5.38679 17.568 5.6541 18.1498 6.03624 18.6196C6.78824 19.5439 8.04913 20.1251 9.371 20.1251H13.6303C14.9521 20.1251 16.213 19.5439 16.965 18.6196C17.3472 18.1499 17.6145 17.568 17.6503 16.9182C17.6868 16.2582 17.4798 15.6042 17.0403 15.0174C16.8442 14.7556 16.6287 14.5066 16.3947 14.2726C15.8672 13.7451 15.2632 13.3115 14.6089 12.9826ZM11.5006 14.1621C10.1733 14.1621 8.90037 14.6894 7.96182 15.6279C7.79259 15.7971 7.63676 15.9772 7.495 16.1665C7.29991 16.4269 7.25532 16.6434 7.26466 16.8125C7.27456 16.9918 7.35038 17.1978 7.52301 17.41C7.88055 17.8494 8.57577 18.2084 9.371 18.2084H13.6303C14.4255 18.2084 15.1207 17.8494 15.4782 17.41C15.6509 17.1978 15.7267 16.9918 15.7366 16.8125C15.7459 16.6434 15.7013 16.4269 15.5063 16.1665C15.3645 15.9772 15.2087 15.7971 15.0394 15.6279C14.1009 14.6894 12.8279 14.1621 11.5006 14.1621Z" fill="white"/>
</svg>
